#!OML:ASF H:\Male1\Project 1\Capture day 1\Session 1\Male1.ASF
:FULLY-SPECIFIED
:DEGREES
338
root 5.79957 15.3844 3.04457 176.786 9.23709 179.21
lowerback 4.66373 1.76579 -1.31973
upperback 1.99183 2.38652 -1.05634
thorax -0.574749 1.23311 -0.4651
lowerneck -7.17819 6.81102 9.84233
upperneck 8.47069 8.69895 -5.66077
head 4.38485 4.34011 -2.76265
rclavicle -6.36111e-015 -2.38542e-015
rhumerus -34.411 9.31466 -95.4613
rradius 25.7671
rwrist -10.9954
rhand -7.87101 5.96547
rfingers 7.12502
rthumb 18.0329 -23.2186
lclavicle -6.36111e-015 -2.38542e-015
lhumerus -34.6654 11.8707 79.7479
lradius 23.4435
lwrist -8.44708
lhand -17.1576 7.79189
lfingers 7.12502
lthumb 9.08327 37.5763
rfemur -1.63672 20.9623 21.8422
rtibia 24.2889
rfoot -28.1941 -27.323
rtoes -24.6875
lfemur 2.37594 -18.0393 -23.2212
ltibia 20.8187
lfoot -32.0448 32.1474
ltoes 10.263
339
root 5.80063 15.3854 3.04862 176.886 9.21935 179.574
lowerback 4.63181 1.79578 -1.04549
upperback 1.95872 2.43298 -0.925193
thorax -0.585766 1.25443 -0.485874
lowerneck -6.83109 6.94119 10.6462
upperneck 8.4457 8.90124 -6.3507
head 4.40355 4.4385 -3.0948
rclavicle -1.80149e-014 -5.96354e-015
rhumerus -34.6043 8.61503 -95.1803
rradius 25.763
rwrist -10.892
rhand -7.75501 5.88556
rfingers 7.12502
rthumb 18.1446 -23.2881
lclavicle -1.80149e-014 -5.96354e-015
lhumerus -34.953 13.0903 79.1162
lradius 23.3319
lwrist -8.77798
lhand -17.2563 8.15963
lfingers 7.12502
lthumb 8.98799 37.9482
rfemur -1.61824 21.0598 22.2537
rtibia 24.1594
rfoot -28.1439 -27.5218
rtoes -24.7148
lfemur 2.24188 -18.0471 -22.7842
ltibia 20.9358
lfoot -32.1361 31.9984
ltoes 10.6712
340
root 5.80168 15.3877 3.05429 176.967 9.16568 179.805
lowerback 4.62247 1.86177 -0.84296
upperback 1.9322 2.52658 -0.873136
thorax -0.601577 1.30059 -0.550655
lowerneck -6.99129 6.92024 10.641
upperneck 8.6872 8.85675 -6.21844
head 4.49404 4.42338 -3.04842
rclavicle 7.95139e-015 -4.37326e-015
rhumerus -34.7335 7.85413 -94.9215
rradius 25.7817
rwrist -11.0132
rhand -7.76137 5.95462
rfingers 7.12502
rthumb 18.1384 -23.2196
lclavicle 7.95139e-015 -4.37326e-015
lhumerus -35.079 14.1583 78.5237
lradius 23.1525
lwrist -9.20802
lhand -17.204 8.20956
lfingers 7.12502
lthumb 9.03846 37.9959
rfemur -1.59559 21.1319 22.5092
rtibia 24.0129
rfoot -28.1709 -27.601
rtoes -24.586
lfemur 2.07379 -18.0218 -22.4785
ltibia 21.0837
lfoot -32.1368 31.8642
ltoes 10.8851
341
root 5.8017 15.3889 3.06088 176.932 9.0542 179.793
lowerback 4.68192 1.91174 -0.839744
upperback 1.93959 2.59424 -0.906195
thorax -0.625206 1.33541 -0.591872
lowerneck -7.08321 6.89143 10.7323
upperneck 8.80452 8.80335 -6.20672
head 4.54434 4.4006 -3.05885
rclavicle 7.28049e-015 -5.1684e-015
rhumerus -34.8084 7.25654 -94.7048
rradius 25.8612
rwrist -11.1622
rhand -7.72444 5.95484
rfingers 7.12502
rthumb 18.174 -23.2161
lclavicle 7.28049e-015 -5.1684e-015
lhumerus -35.0418 15.1665 77.9935
lradius 22.8471
lwrist -9.65752
lhand -17.3533 8.3507
lfingers 7.12502
lthumb 8.89445 38.1432
rfemur -1.54087 21.0506 22.4976
rtibia 23.9473
rfoot -28.2207 -27.5739
rtoes -24.4128
lfemur 2.03214 -18.1073 -22.4913
ltibia 21.1524
lfoot -32.1219 31.8493
ltoes 10.8228
342
root 5.80339 15.3864 3.06712 176.838 8.9302 179.71
lowerback 4.75546 1.95988 -0.938476
upperback 1.955 2.65606 -0.950877
thorax -0.652335 1.36751 -0.588284
lowerneck -7.08338 6.86733 10.863
upperneck 8.83261 8.76482 -6.2646
head 4.55819 4.38359 -3.09983
rclavicle 2.37796e-014 -7.95139e-016
rhumerus -34.7633 6.51718 -94.436
rradius 25.7795
rwrist -10.9783
rhand -7.86221 5.94425
rfingers 7.12502
rthumb 18.0414 -23.239
lclavicle 2.37796e-014 -7.95139e-016
lhumerus -34.9173 15.8471 77.6273
lradius 22.5241
lwrist -9.94531
lhand -17.5453 8.75296
lfingers 7.12502
lthumb 8.7091 38.5533
rfemur -1.46911 21.1238 22.4778
rtibia 24.009
rfoot -28.3537 -27.7247
rtoes -24.3276
lfemur 2.13765 -18.3138 -22.6273
ltibia 21.0742
lfoot -32.1072 31.9546
ltoes 10.6917
343
root 5.80436 15.3829 3.07366 176.742 8.8039 179.49
lowerback 4.8216 2.03942 -1.11739
upperback 1.9516 2.75655 -1.0765
thorax -0.694303 1.41957 -0.625239
lowerneck -7.03465 6.80852 10.9778
upperneck 8.78758 8.67307 -6.23824
head 4.53236 4.34403 -3.11916
rclavicle 8.62228e-015 -2.78299e-015
rhumerus -34.671 5.65123 -94.1929
rradius 25.6515
rwrist -10.6825
rhand -8.28418 5.95302
rfingers 7.12502
rthumb 17.6354 -23.2672
lclavicle 8.62228e-015 -2.78299e-015
lhumerus -34.6791 15.9078 77.521
lradius 22.254
lwrist -10.0403
lhand -17.6525 9.14493
lfingers 7.12502
lthumb 8.6057 38.9495
rfemur -1.45341 21.2292 22.2991
rtibia 24.1329
rfoot -28.4481 -27.8923
rtoes -24.4126
lfemur 2.26026 -18.5141 -22.9106
ltibia 20.927
lfoot -32.0365 32.0913
ltoes 10.7272
